<svg width="32" height="32" viewBox="0 0 32 32" fill="none" xmlns="http://www.w3.org/2000/svg">
  <!-- Background -->
  <rect width="32" height="32" rx="6" fill="#1a365d"/>
  
  <!-- Calendar -->
  <rect x="6" y="8" width="20" height="18" rx="2" fill="#ffffff"/>
  
  <!-- Calendar Header -->
  <rect x="6" y="8" width="20" height="4" rx="2" fill="#2c5282"/>
  <rect x="6" y="11" width="20" height="1" fill="#2c5282"/>
  
  <!-- Grid -->
  <line x1="11" y1="14" x2="11" y2="24" stroke="#e2e8f0" stroke-width="0.5"/>
  <line x1="16" y1="14" x2="16" y2="24" stroke="#e2e8f0" stroke-width="0.5"/>
  <line x1="21" y1="14" x2="21" y2="24" stroke="#e2e8f0" stroke-width="0.5"/>
  <line x1="8" y1="17" x2="24" y2="17" stroke="#e2e8f0" stroke-width="0.5"/>
  <line x1="8" y1="21" x2="24" y2="21" stroke="#e2e8f0" stroke-width="0.5"/>
  
  <!-- Bell -->
  <g transform="translate(20, 22) scale(0.5)">
    <path d="M 0 -4 Q -3 -4 -4 -1 L -4 1 Q -4 2 -3 2 L 3 2 Q 4 2 4 1 L 4 -1 Q 3 -4 0 -4 Z" fill="#d69e2e"/>
    <ellipse cx="0" cy="2" rx="4" ry="1" fill="#ecc94b"/>
  </g>
  
  <!-- Market Closed Badge -->
  <circle cx="24" cy="10" r="4" fill="#e53e3e"/>
  <rect x="22" y="9" width="4" height="2" rx="1" fill="#ffffff"/>
</svg>